<?xml version="1.0" encoding="UTF-8" standalone="no"?><!DOCTYPE svg PUBLIC "-//W3C//DTD SVG 1.1//EN" "http://www.w3.org/Graphics/SVG/1.1/DTD/svg11.dtd"><svg width="1024px" height="768px" version="1.1" xmlns="http://www.w3.org/2000/svg" xmlns:xlink="http://www.w3.org/1999/xlink" xml:space="preserve" xmlns:serif="http://www.serif.com/" style="fill-rule:evenodd;clip-rule:evenodd;stroke-linejoin:round;stroke-miterlimit:2;"><g id="VTT-window"><g transform="matrix(1.01086,0,0,1.03644,-23.2498,-20.7287)"><g id="VTT-Background-Original" serif:id="VTT Background Original"><path d="M1036,50.875C1036,42.686 1032.66,34.833 1026.73,29.043C1020.79,23.253 1012.74,20 1004.34,20L54.656,20C46.26,20 38.209,23.253 32.272,29.043C26.335,34.833 23,42.686 23,50.875L23,730.125C23,738.314 26.335,746.167 32.272,751.957C38.209,757.747 46.26,761 54.656,761L1004.34,761C1012.74,761 1020.79,757.747 1026.73,751.957C1032.66,746.167 1036,738.314 1036,730.125L1036,50.875Z" style="fill:rgb(26,26,26);"/></g></g><g transform="matrix(1.01086,0,0,0.280702,-23.2498,554.386)"><g id="HUD-Original" serif:id="HUD Original"><path d="M1036,20L23,20L23,647C23,677.235 26.335,706.231 32.272,727.61C38.209,748.989 46.26,761 54.656,761L1004.34,761C1012.74,761 1020.79,748.989 1026.73,727.61C1032.66,706.231 1036,677.235 1036,647L1036,20Z" style="fill:rgb(13,13,13);"/></g></g></g></svg>